<?xml version="1.0" encoding="UTF-8"?>
<svg width="284px" height="120px" viewBox="0 0 284 120" version="1.1" xmlns="http://www.w3.org/2000/svg" xmlns:xlink="http://www.w3.org/1999/xlink">
    <title>cathay-zh</title>
    <defs>
        <polygon id="path-1" points="3.20339343e-16 1.11447265e-16 63.1201417 1.11447265e-16 63.1201417 38.753773 3.20339343e-16 38.753773"></polygon>
    </defs>
    <g id="Page-1" stroke="none" stroke-width="1" fill="none" fill-rule="evenodd">
        <g id="cathay-zh">
            <path d="M99.3500886,79.8334645 C98.8422651,77.9924445 93.4770004,78.7754301 89.0430798,78.373899 C85.0336835,78.024567 79.8701431,77.2837421 73.6588405,75.1455891 C67.860019,73.12388 62.2518822,70.8070457 57.3633292,68.1709941 C57.3633292,68.1709941 55.3631473,67.1229979 55.1513869,67.0075577 C54.7599815,66.7626238 54.4428428,66.5839424 54.0203257,66.3410161 C53.7975257,66.1924496 53.4161563,65.968596 53.1632482,65.864198 C52.8129906,65.7055932 52.5911942,65.5249042 52.2840915,65.345219 C51.9880284,65.1544918 51.5645077,64.9537262 51.2794843,64.7740411 C50.8138122,64.4879502 50.5388249,64.2871846 50.1153041,63.9689712 C49.8613924,63.7792478 49.7238987,63.7150028 49.3746447,63.5252794 C49.1628843,63.3867511 48.7925546,63.1749435 48.5918339,63.0484612 C48.2004285,62.7944928 47.9565528,62.5726469 47.5651474,62.3186785 C47.3112357,62.1279512 47.1416267,62.0215454 46.8555997,61.8418603 C46.5595367,61.6832555 46.2845493,61.4503675 46.0306376,61.2706823 C45.8931439,61.1642766 45.7134988,61.0478326 45.5760051,60.9103082 C45.2899781,60.6352594 45.0049547,60.381291 44.697852,60.159445 C44.4329007,59.9476374 44.1689529,59.6826269 43.8829259,59.4918996 C43.7243565,59.355379 43.4172538,59.1014106 43.2476448,58.9749283 C42.8140881,58.6667532 42.5391007,58.4238269 42.0945043,58.1166556 C41.819517,57.904848 41.5766449,57.6187571 41.3006539,57.3959073 C40.9734791,57.1640231 40.6874521,56.8990126 40.3482341,56.6872049 C40.1475134,56.5185619 39.9046413,56.3388767 39.7450684,56.1581877 C39.523272,55.9152614 39.3436269,55.7466184 39.0997512,55.5026882 C38.9311458,55.3219992 38.6340792,55.1101916 38.4544341,54.9305064 C38.1694107,54.5922165 37.7880414,54.2428844 37.4387873,53.9577974 C37.2169909,53.7459897 37.1527603,53.6496223 37.0684576,53.5452242 C37.0052306,53.4488567 36.9098882,53.342451 36.7613549,53.18485 L36.4442162,52.8676405 C36.3599135,52.7933572 36.2746072,52.719074 36.0417711,52.4861859 C35.9685081,52.4129065 35.8300108,52.2211754 35.7035567,52.0515285 C35.5981784,51.915008 35.4917964,51.7664415 35.4386054,51.6921582 C35.2057694,51.4492319 35.0582396,51.3117075 34.9207459,51.1420606 C34.814364,51.0256166 34.6989496,50.8991343 34.5504162,50.7716482 C34.4651099,50.6762846 34.3908433,50.5708826 34.3386559,50.4644769 C34.2754288,50.359075 34.2011622,50.2526693 34.1268955,50.1683477 C33.9894018,50.0097429 33.8940595,50.0739879 33.8629478,50.0940645 C33.7876775,50.1683477 33.7565658,50.29483 33.8519081,50.4865611 C33.9572865,50.6973649 34.1268955,50.930253 34.2322739,51.0687812 C34.2433135,51.0998998 34.2754288,51.1310185 34.2854649,51.1420606 C34.3175802,51.21534 34.3597315,51.279585 34.3908433,51.3538683 C34.4550739,51.4492319 34.5183009,51.5546338 34.5714919,51.6610395 C34.7511369,51.8818816 34.9418216,52.0515285 35.0893513,52.2322175 L35.2689964,52.4129065 C35.3753784,52.5393888 35.4807567,52.6668749 35.566063,52.7933572 C35.6614054,52.9419237 35.7567477,53.0884826 35.8832018,53.2270108 C35.9464288,53.2691716 35.9895838,53.3334165 36.0528108,53.4076998 C36.0949621,53.4809792 36.1581892,53.5552625 36.2224198,53.639584 C36.3067225,53.7239055 36.4121009,53.8303112 36.5184828,53.9357132 C36.6770522,54.10536 36.8566972,54.2639648 37.0052306,54.4014892 C37.1216486,54.507895 37.2591423,54.6454194 37.396636,54.7829438 C37.7137747,55.1633945 38.0740684,55.5548873 38.3600954,55.9263035 C38.5287008,56.1381112 38.8247639,56.2957121 39.0264882,56.4442786 C39.2693603,56.6139255 39.4178936,56.8678939 39.586499,57.0797016 C39.7239927,57.2383064 40.0100197,57.4812327 40.1264377,57.6619217 C40.4546161,58.0744948 40.6874521,58.3174212 41.1210089,58.6135503 C41.3749206,58.8153197 41.5766449,58.9749283 41.7884052,59.2489733 C41.9038197,59.3975398 42.2741494,59.7679522 42.4226827,59.926557 C42.7719367,60.381291 42.9305061,60.8159484 42.8773151,60.8159484 C42.6344431,60.8791895 42.0413133,60.3501723 41.6920593,60.1383646 C41.3959962,59.9476374 41.3538449,59.8733541 41.0888935,59.6615465 C41.0156305,59.5983053 40.5921098,59.291134 40.4435764,59.1114489 C40.3271584,58.9950049 40.0100197,58.6667532 39.9046413,58.5292288 C39.4178936,57.904848 39.2382485,57.8616834 38.6661945,57.3226279 C38.2426738,56.9100547 37.74589,56.5506844 37.3334089,56.1692298 C37.2169909,56.0628241 37.0895333,55.9263035 36.9731153,55.7988174 C36.8566972,55.661293 36.6870882,55.5348107 36.5706702,55.4183667 C36.3699495,55.1754404 36.1260738,54.7186988 35.9042775,54.5400174 C35.6614054,54.3593285 35.4917964,54.2117658 35.2589604,54.0099964 C35.163618,53.9678356 35.0893513,53.8624337 35.0150847,53.7881505 C34.8886306,53.7138672 34.7511369,53.6084653 34.6668342,53.4809792 C34.3908433,53.1527275 34.1268955,52.7933572 33.8519081,52.4440252 C33.7354901,52.2633362 33.5337658,52.1258118 33.4183514,51.9561649 C33.1423604,51.5867563 32.920564,51.1952635 32.6455766,50.8248511 C32.2642073,50.3269525 31.7252721,49.9675822 31.3338668,49.4696836 C30.9735731,48.9617468 30.7296974,48.3584463 30.381447,47.8294291 C30.2329136,47.585499 29.9900416,47.4058138 29.8204326,47.2050483 C29.7140506,47.0675239 29.6718992,46.9189574 29.5775605,46.7703909 C29.3868758,46.4953421 29.1751155,46.1992129 28.9633551,45.9141258 C28.720483,45.56379 28.550874,45.1411785 28.2969623,44.7607278 C28.254811,44.6964828 28.158465,44.4635948 28.032011,44.2517871 C27.8634056,44.0510216 27.7249083,43.8402178 27.5552993,43.5641652 C27.3977335,43.2991546 27.3013876,43.1194695 27.1859732,42.9187039 C27.0484795,42.7279767 26.9742128,42.5482915 26.8788705,42.4107671 C26.8046038,42.283281 26.6249588,42.0403547 26.5617317,41.9339489 C26.3178561,41.595659 26.2646651,41.4159738 26.021793,41.0766801 C25.8732597,40.8969949 25.7146903,40.7283518 25.5982723,40.7815547 C25.4928939,40.8548341 25.5240056,40.9702743 25.5561209,41.0666418 C25.6404236,41.3517289 25.6404236,41.3095681 25.7678813,41.5213757 C25.958566,41.8606695 26.021793,42.0293126 26.2335534,42.3364839 C26.3178561,42.4960925 26.4874651,42.8434168 26.6249588,43.04619 C26.7624524,43.2359135 26.8788705,43.4477211 26.9742128,43.617368 C27.0585155,43.7970532 27.2070488,44.2307068 27.3656182,44.4103919 C27.4709966,44.537878 27.6084903,44.8229651 27.6937966,45.0136924 C27.9055569,45.4051852 28.148429,45.7233986 28.3601893,46.029566 C28.497683,46.2835344 28.6351767,46.5595871 28.7626344,46.8025134 C29.0366182,47.2261287 29.3658001,47.5965411 29.6407875,48.0201564 L30.1275352,48.9085439 C30.2861046,49.1524741 30.5189406,49.3542434 30.6664704,49.6082119 C30.8681947,49.8932989 30.9735731,50.2215506 31.1642577,50.5066377 C31.3017514,50.749564 31.5135118,50.9523372 31.6610415,51.1952635 C31.9370325,51.5867563 32.1799046,51.9561649 32.4438523,52.3275812 C32.6034253,52.5393888 32.79411,52.6979936 32.9416397,52.9098012 C33.1423604,53.1948883 33.3119694,53.5120979 33.5337658,53.7550242 C33.7876775,53.9999581 33.8519081,54.1475208 34.0636685,54.3703706 C34.3808072,54.740783 35.100391,55.7988174 34.994009,55.7988174 C34.5504162,55.8510164 33.7144144,54.8993878 33.3330451,54.5610978 C33.0690973,54.286049 32.7619946,54.0842797 32.57131,53.8303112 C32.2963226,53.4388184 32.0845622,53.0152031 31.8095748,52.6558328 C31.7041965,52.5173046 31.5235478,52.4129065 31.4392451,52.2743783 C31.2385244,52.031452 31.0588794,51.7664415 30.8360794,51.5345573 C30.740737,51.4492319 30.6353587,51.3849869 30.561092,51.279585 C30.2118379,50.8248511 29.9258109,50.359075 29.5775605,49.8932989 C29.4501028,49.7136138 29.2594182,49.5429631 29.1329641,49.3542434 C29.0265821,49.2157152 28.9633551,49.0681525 28.8569731,48.8985057 C28.7415587,48.686698 28.550874,48.4849286 28.4234164,48.2741248 C28.318038,48.1255583 28.254811,47.9559114 28.148429,47.8294291 C27.97882,47.5433382 27.7249083,47.3104502 27.5452632,47.0243593 C27.4077695,46.8025134 27.3756542,46.5174263 27.2281245,46.2734962 C26.8467551,45.7123565 26.4232344,45.1200981 26.0639444,44.537878 C25.9796417,44.3893115 25.9264507,44.2307068 25.8411444,44.0620637 C25.5561209,43.5952838 25.2700939,43.0983891 24.9629912,42.6225748 C24.8576129,42.4529279 24.8154615,42.2521623 24.6880038,42.0925537 C24.5615498,41.8606695 24.3497894,41.7110992 24.2233354,41.5002954 C24.1059138,41.3316523 24.0537264,41.1720437 23.9694237,40.9923585 C23.8630417,40.7484284 23.7145084,40.4954638 23.5880543,40.2836562 C23.5137877,40.1240476 23.4716363,39.9764849 23.376294,39.8379567 C23.037076,39.2878591 22.7309769,38.6966045 22.4449498,38.070216 C22.2763444,37.7429682 22.0535444,37.4568773 21.9050111,37.1296295 C21.7364057,36.7792936 21.5667967,36.3888046 21.4082273,36.0495108 C21.312885,35.8166228 21.2175427,35.5736965 21.1653553,35.3408085 C20.9847066,34.9493157 20.7097193,34.6311023 20.5401103,34.2396095 C20.4236922,33.9966832 20.3604652,33.7427147 20.2540832,33.519865 C20.1808202,33.3933827 20.0644022,33.2769387 19.9590238,33.3411836 C19.8737175,33.3933827 19.8636814,33.4987846 19.9269085,33.7105923 C20.0322868,34.1231654 20.2440472,34.556819 20.3504292,34.7907109 C20.5621895,35.2344027 20.6464922,35.7112209 20.8582526,36.1559166 C20.963631,36.3988429 21.13324,36.642773 21.2386183,36.8967414 L21.8207084,38.1665835 C21.9260868,38.3894333 22.0214291,38.6323596 22.1589228,38.8431634 C22.2121138,38.9816916 22.3285318,39.1182122 22.3817228,39.23566 C22.5091805,39.5418275 22.5513318,39.8279184 22.6677498,40.1140093 C22.8263192,40.4001002 23.0481156,40.6430265 23.1544976,40.9291174 C23.8520021,42.3575642 24.5394705,43.7649307 25.3764759,45.0458149 C25.5982723,45.4051852 25.7146903,45.8498809 25.9475263,46.210255 C26.201438,46.5907057 26.5185768,46.8557162 26.7624524,47.236167 C26.9420975,47.5433382 27.0063281,47.9559114 27.1638939,48.2741248 C27.4499209,48.7609813 27.7891389,49.1835927 28.085202,49.6172463 C28.158465,49.7557745 28.1795407,49.8932989 28.264847,50.0097429 C28.3702254,50.1894281 28.5297983,50.3801554 28.6351767,50.5598405 C28.7837101,50.8027668 28.8569731,51.0687812 29.0265821,51.279585 C29.2062272,51.5225113 29.4501028,51.7242807 29.6086722,51.9561649 C29.8415082,52.2633362 29.9900416,52.6136721 30.2118379,52.8987591 C30.3704073,53.1105668 30.6032433,53.2581294 30.7618127,53.4699371 C31.0157244,53.7981888 31.8948812,54.9305064 32.1487929,55.2687964 C32.518119,55.7466184 33.206591,56.4753973 33.5337658,57.1108202 C33.6301117,57.3226279 33.9683261,57.7683274 33.8940595,57.8616834 C33.7144144,58.0002116 32.857337,57.0586212 32.7088037,56.9100547 C32.3595496,56.5607226 32.0424109,56.0959504 31.7353082,55.7034538 C31.6510055,55.6080901 30.8150037,54.8140624 30.740737,54.7186988 C30.6664704,54.6132969 30.5932073,54.4968529 30.5189406,54.3703706 C30.275065,54.0421189 30.1375713,53.639584 29.8936956,53.301294 C29.7883172,53.18485 29.6407875,53.0794481 29.5344055,52.9419237 C29.3547605,52.6879553 29.2172668,52.4018644 29.0366182,52.1368539 C28.7415587,51.7453611 28.3601893,51.4070711 28.0741623,50.9834558 C27.7359479,50.5598405 27.5131479,50.0408616 27.1960092,49.5861276 C27.0274038,49.37432 26.8367191,49.1956387 26.6881858,48.9617468 C26.6038831,48.8563449 26.5828074,48.7499392 26.5185768,48.6445372 C26.3921227,48.4758942 26.2335534,48.2630827 26.1592867,48.0623172 C26.0639444,47.882632 26.0007173,47.7230234 25.8943353,47.5543803 C25.566157,47.0243593 25.2169029,46.4642234 24.8897282,45.9241641 C24.7411948,45.7023182 24.6458525,45.4272694 24.4983228,45.1823354 C24.2544471,44.8028886 23.9051931,44.4635948 23.6613174,44.0510216 C23.3451823,43.5852455 23.1966489,43.0241058 22.9005859,42.5482915 C22.6988616,42.242124 22.4559895,41.9560331 22.2763444,41.6488619 C22.0535444,41.3095681 21.9471625,40.9180753 21.7675174,40.5697471 C21.5878724,40.2625758 21.3450003,39.9654428 21.196467,39.6592753 C21.0378976,39.3099433 20.9315156,38.9816916 20.7739499,38.6323596 C20.6776039,38.4516706 20.5401103,38.2619471 20.4658436,38.070216 C20.3604652,37.8383318 20.3293535,37.5954055 20.2229715,37.3615137 C19.9379481,36.7170563 19.4823121,36.1037175 19.186249,35.4682946 C18.953413,35.0025185 18.7627283,34.5146583 18.5931193,34.0288056 C18.5088166,33.7627913 18.4556256,33.4987846 18.3291716,33.2568621 C18.0642202,32.6736382 17.7360418,32.0382153 17.4610545,31.4349148 C17.3556761,31.1277435 17.2392581,30.7994919 17.1338797,30.5033627 C17.1228401,30.4090029 17.1017644,30.3136392 17.059613,30.2293177 C16.9321554,29.9542689 16.7836221,29.6892584 16.6782437,29.4132058 C16.5618257,29.0849541 16.4564473,28.7687484 16.3500653,28.4294546 C15.9375842,27.3925006 15.5461788,26.2180221 15.1547734,25.1278652 C15.1116185,24.9260959 15.0905428,24.6932078 15.0172798,24.4814002 C14.8265951,23.9212643 14.6148347,23.3490825 14.414114,22.7889467 C14.297696,22.5028558 14.0227086,22.6082577 14.0969753,22.8943486 C14.1702383,23.2747993 14.2334654,23.381205 14.2766203,23.678338 C14.307732,23.8469811 14.3398473,23.9845055 14.3719627,24.133072 C14.414114,24.3227954 14.5194924,24.523561 14.5726834,24.6932078 C14.6780617,25.0314978 14.6891014,25.350715 14.8055194,25.6890049 C14.9640888,26.1226585 15.1226581,26.5773925 15.2812275,27.0321264 C15.3233788,27.2439341 15.3665338,27.4768221 15.4086851,27.7207522 C15.4929878,27.9315561 15.5672545,28.1644441 15.6415212,28.3561752 C15.8633176,28.9263493 16.0961536,29.4563704 16.2868383,30.0275483 C16.3611049,30.3447579 16.4564473,30.6629713 16.54075,31.0012612 C16.6360923,31.1809464 16.773586,31.3616354 16.826777,31.5413205 C16.9110797,31.6778411 16.9221193,31.8374497 16.9853464,32.0060928 C17.1338797,32.3564287 17.2703698,32.7368794 17.4189031,33.0962497 C17.5563968,33.3933827 17.7360418,33.700554 17.8524599,34.0288056 C17.9056509,34.16633 17.9056509,34.3038544 17.9588418,34.4514171 C18.2970563,35.4150917 18.6884616,36.4199233 19.0909067,37.3193529 C19.1962851,37.5522409 19.2284004,37.7750907 19.3237427,38.018017 C19.4080454,38.2087443 19.5355031,38.3894333 19.6087661,38.5901988 C19.6519211,38.705639 19.6940724,38.8331251 19.7472634,38.9706495 C19.8737175,39.2246179 20.0744382,39.4474677 20.2119319,39.7014361 C20.5722256,40.4422609 20.8793283,41.1509633 21.312885,41.7863863 C21.7364057,42.3575642 21.9050111,43.1626341 22.2121138,43.8713364 C22.3706832,44.188546 22.5513318,44.4746369 22.7420165,44.7607278 C22.8363552,44.9082905 22.9005859,45.0980139 22.9738489,45.2475842 C23.1645336,45.6069546 23.269912,45.9241641 23.5348633,46.2413737 C23.7145084,46.5174263 23.6934327,46.5907057 23.8520021,46.9500761 C23.8941534,47.0564818 24.0848381,47.7551459 24.0426867,47.7551459 C23.9794597,47.7973066 23.6402417,47.585499 23.5348633,47.4479746 C23.3662579,47.2783277 23.1223823,47.0564818 22.9527733,46.6760311 C22.8684706,46.4642234 22.6988616,46.14601 22.6145589,45.9673287 C22.4027985,45.5015527 22.0214291,45.1200981 21.7675174,44.6964828 C21.598912,44.4635948 21.5246454,44.1674656 21.3871517,43.9024551 C21.1653553,43.4166025 20.9004039,42.9187039 20.6675679,42.4107671 C20.5722256,42.2100016 20.4236922,42.0182705 20.2972382,41.8175049 C20.1808202,41.6378198 20.1175931,41.4159738 19.9800995,41.2142045 C19.7261877,40.7905892 19.4080454,40.3258169 19.1962851,39.8600409 C19.0377157,39.5107088 18.953413,39.1613768 18.7948436,38.8331251 C18.7516887,38.7277232 18.6573499,38.6213175 18.5931193,38.5159155 C18.4877409,38.3462687 18.4455896,38.1665835 18.3392076,37.9648141 C18.2237932,37.7008074 18.0541842,37.4568773 17.9156869,37.1828323 C17.6728148,36.6528113 17.5252851,36.112752 17.2814094,35.6048152 C17.1649914,35.3408085 16.9642707,35.1290008 16.8578887,34.8961128 C16.6993194,34.5257004 16.6682076,34.0599243 16.4664833,33.6684315 C16.0329266,32.6415157 15.5040275,31.5834813 15.0905428,30.4832861 C15.0383554,30.3025971 15.0172798,30.0907895 14.9640888,29.9111043 C14.7954834,29.4242479 14.5726834,28.9905943 14.3819987,28.5348565 C14.307732,28.3240527 14.297696,28.1443675 14.2334654,27.9315561 C14.1180509,27.6043082 13.9594816,27.2650145 13.84206,26.9578432 C13.8109482,26.8524413 13.7999086,26.725959 13.7577573,26.6195532 C13.6302996,26.3334623 13.5459969,25.974092 13.4085032,25.6669207 C13.3342365,25.5083159 13.2077825,25.3386691 13.1545915,25.170026 C13.0281375,24.8528164 13.0592492,24.4814002 12.9639068,24.1641906 C12.8053375,23.7204988 12.6256924,23.2436806 12.4560834,22.8200653 C12.3828204,22.5660969 12.3607411,22.3231706 12.2553627,22.0692022 C12.1499843,21.7720692 12.0436023,21.4448213 11.938224,21.1697725 C11.821806,20.8515592 11.831842,20.55543 11.7264636,20.2271783 C11.6732726,19.984252 11.5678942,19.7182377 11.4725519,19.5184759 C11.3240186,19.0737803 11.2607916,18.6190463 11.1122582,18.2265497 C11.1022222,18.1733468 11.0701069,18.0890253 11.0379916,18.0157458 C10.9958402,17.8993018 10.9115375,17.7918923 10.8051555,17.8250186 C10.6897411,17.8671793 10.6897411,18.0358224 10.6897411,18.1422281 C10.7208528,18.4383573 10.8372708,18.7244482 10.9326132,18.9894587 C11.0169159,19.2434271 11.0811465,19.5285142 11.1443735,19.7834865 C11.1865249,19.9621678 11.1764889,20.1318147 11.2186402,20.3114998 C11.2818672,20.5654683 11.3671735,20.7983563 11.4404366,21.0523247 C11.5036636,21.2751745 11.4725519,21.5391811 11.5257429,21.7188663 C11.6833087,22.2488873 11.8529177,22.851184 12.0335663,23.3490825 C12.1068294,23.614093 12.127905,23.9212643 12.2031753,24.133072 C12.3085537,24.418159 12.3928564,24.6932078 12.4881987,24.9471763 C12.5725014,25.1901026 12.5935771,25.3818337 12.6788834,25.5926375 C12.7842618,25.8365676 12.9117194,26.0584135 12.9849825,26.3234241 C13.0702888,26.6416374 13.0702888,26.9688853 13.1756672,27.2650145 C13.3763879,27.7839934 13.5991879,28.2497695 13.7687969,28.7466642 C13.8320239,28.9163111 13.84206,29.1070383 13.9062906,29.2867235 C14.06486,29.6992967 14.1702383,30.1550345 14.307732,30.5776459 C14.5405681,31.159866 14.8265951,31.7531282 15.0172798,32.3443827 C15.2501158,32.9276066 15.2812275,33.6262707 15.5140635,34.16633 C15.6415212,34.4413788 15.8954329,34.6100219 16.0118509,34.8639903 C16.1071932,35.0446793 16.0750779,35.2243645 16.138305,35.4351683 C16.2025356,35.658018 16.307914,35.8698257 16.3821806,36.0816333 C16.4353716,36.2823989 16.4885626,36.4630879 16.54075,36.642773 C16.6360923,36.8636151 16.8046977,37.0764266 16.8789644,37.2882342 C17.0375338,37.6375663 17.1338797,38.018017 17.3235608,38.31515 C17.4610545,38.548038 17.6617752,38.769884 17.8002725,39.0449328 C17.9377662,39.3300198 17.9799175,39.6482332 18.0963355,39.9443624 C18.2970563,40.3890581 18.550968,40.8016313 18.6995013,41.2784494 C18.8580707,41.6799805 18.9112616,42.1357183 19.123022,42.4960925 C19.302667,42.8765432 19.5666148,43.203791 19.7783751,43.5641652 C19.8947931,43.8402178 20.0112112,44.0931824 20.1386688,44.3893115 C20.2440472,44.5800388 20.4347319,44.7918465 20.5722256,45.0136924 C20.7097193,45.2787029 20.8793283,45.5748321 20.9957463,45.8498809 C21.1011247,46.0727306 21.13324,46.2734962 21.2386183,46.4642234 C21.429303,46.7392722 21.5667967,46.9821985 21.7464418,47.2692933 C21.9050111,47.5122196 22.0856598,47.8404712 22.2020778,48.1255583 C22.2974201,48.3684846 22.3817228,48.5913344 22.5091805,48.7920999 C22.6567102,48.9828272 22.8363552,49.1735545 22.9527733,49.3632779 C23.0802309,49.5750855 23.2388003,50.2747535 23.1645336,50.29483 C23.037076,50.3480329 22.6145589,49.9555362 22.4881048,49.8190157 C22.1699625,49.3964042 21.9903174,48.8663832 21.7042904,48.4427679 C21.376112,47.9779956 21.1753913,47.7230234 20.9315156,47.1940062 C20.7839859,46.8878387 20.5401103,46.3487832 20.3504292,46.0616885 C20.1808202,45.8077201 19.9590238,45.5748321 19.8315661,45.289745 C19.7261877,45.0668952 19.6619571,44.7697622 19.5666148,44.537878 C19.4080454,44.1995881 19.0909067,43.9767383 18.9323373,43.6484867 C18.730613,43.25599 18.6573499,42.8434168 18.4556256,42.4629661 C18.3713229,42.3043614 18.2338292,42.1035958 18.1595626,41.9138724 C18.0541842,41.6799805 17.9909572,41.4581346 17.8845752,41.2252466 C17.6617752,40.7484284 17.3235608,40.3569356 17.1228401,39.8700791 C16.8789644,39.3832227 16.7525103,38.8752859 16.4985986,38.367349 C16.3821806,38.1234189 16.1704203,37.8804926 16.0439662,37.6054438 C15.8633176,37.2561118 15.7890509,36.8967414 15.6094059,36.5363673 C15.5140635,36.3245596 15.3665338,36.112752 15.2601518,35.9019482 C15.1226581,35.6048152 15.0694671,35.2564869 14.9319734,34.9382736 C14.593759,34.2084908 14.2766203,33.4777042 13.9484419,32.7479215 C13.8320239,32.4628344 13.7999086,32.1867818 13.6624149,31.8896488 C13.5570365,31.6467225 13.4195429,31.4238727 13.3031248,31.159866 C13.0281375,30.5244431 12.9217555,29.7735799 12.6367321,29.138157 C12.4881987,28.8109091 12.3185897,28.5037379 12.181096,28.1644441 C11.991415,27.6043082 11.895069,27.0431685 11.7053879,26.4830327 C11.3982852,25.62476 11.1443735,24.715292 10.8372708,23.8901457 C10.7529681,23.614093 10.7318925,23.381205 10.6465862,23.1171983 C10.5522474,22.8622261 10.4669411,22.6082577 10.3715988,22.3653314 C10.3083718,22.1746041 10.2662204,21.8674328 10.2029934,21.6134644 C9.98019339,20.8836816 9.758397,20.1639372 9.51452133,19.4331506 C9.47236997,19.2524616 9.4512943,18.9573362 9.38806727,18.7134061 C9.3669916,18.5969621 9.28168529,18.4383573 9.26060962,18.3319516 C9.19738259,18.1733468 9.19738259,18.0358224 9.15523124,17.8571411 C8.95451053,17.32712 8.81701684,16.7027392 8.63636819,16.173722 C8.60525648,16.0151172 8.59421684,15.7721909 8.53098982,15.5704215 C8.28711415,14.8295967 8.17069613,13.8980445 7.88567272,13.1993804 C7.82144209,13.0718943 7.73713939,12.9343699 7.5996457,12.9664924 C7.462152,12.9986149 7.49426732,13.1461776 7.50430336,13.2636254 C7.54645471,13.6229957 7.67391236,13.9090866 7.73713939,14.2052158 C7.75821506,14.3216598 7.75821506,14.501345 7.75821506,14.6489077 C7.79033038,14.7864321 7.81140605,14.9570828 7.8535574,15.072523 C7.99105109,15.5272569 8.13958442,16.057278 8.27707811,16.5120119 C8.31922946,16.7248234 8.28711415,17.0520712 8.34030514,17.2949975 C8.53098982,18.0047037 8.66848351,18.8619726 8.94347089,19.5184759 C9.19738259,20.0896539 9.23953394,20.7983563 9.38806727,21.4337792 C9.4512943,21.6977859 9.47236997,21.9728347 9.49344565,22.2599294 C9.54663664,22.512894 9.69516997,22.7146634 9.77947267,22.9365093 C9.8426997,23.1051524 9.8426997,23.2436806 9.89589069,23.4022854 C10.0223447,23.8570193 10.1287267,24.3227954 10.3083718,24.7775294 C10.4137501,25.0957428 10.5833591,25.402914 10.6897411,25.7201236 C10.7529681,25.8476097 10.7208528,25.974092 10.7630042,26.1226585 C10.8372708,26.4398681 10.9015015,26.7570776 11.0068798,27.0742872 C11.2186402,27.6896336 11.4304006,28.3762517 11.6521969,28.9905943 C11.7796546,29.3499646 11.8107663,29.6892584 11.938224,30.0275483 C12.4249717,31.3616354 12.9428312,32.715799 13.4195429,34.049886 C13.5148852,34.3359769 13.5881483,34.6311023 13.6624149,34.9171932 C13.7687969,35.2243645 13.9484419,35.4994132 14.0859356,35.7533817 C14.2555446,36.112752 14.2766203,36.4731261 14.414114,36.8435386 C14.5726834,37.2561118 14.7844437,37.5954055 14.9319734,38.0501395 C15.0062401,38.2619471 15.0905428,38.4948352 15.1868888,38.705639 C15.2601518,38.8752859 15.4086851,39.0238524 15.4929878,39.1613768 C15.5993698,39.4364256 15.6204455,39.7847538 15.7579392,40.039726 C15.8843932,40.3157786 16.1071932,40.5165442 16.254723,40.7815547 C16.4132923,41.0023968 16.424332,41.2894915 16.54075,41.5635365 C16.7414707,41.9660714 16.9642707,42.3364839 17.1439157,42.7811795 C17.2282184,42.9618685 17.2703698,43.1305116 17.3456401,43.2991546 C17.4189031,43.4898819 17.5885121,43.6906474 17.6728148,43.891413 C17.6728148,43.891413 17.6938905,43.891413 17.6938905,43.9024551 C17.7049301,43.9446159 17.7049301,43.9767383 17.7260058,44.0188991 C17.7360418,44.1142627 17.7681572,44.2196647 17.8002725,44.2949517 C17.8424238,44.4103919 17.9799175,44.6121613 18.0220689,44.6854407 C18.0541842,44.7286053 18.1495265,44.835011 18.2237932,44.9293709 C18.2659445,44.9715316 18.2970563,45.0136924 18.3291716,45.0668952 C18.5088166,45.3319058 18.5188526,45.744479 18.667386,46.0406081 C18.8048797,46.3487832 19.059795,46.5907057 19.2173607,46.8878387 C19.3237427,47.130765 19.3759301,47.7230234 19.249476,47.7340655 C18.6463103,47.7340655 18.5931193,46.8878387 18.4034382,46.4531813 C18.2237932,46.093811 17.9909572,45.8077201 17.8002725,45.4694302 C17.7681572,45.4051852 17.7049301,45.2787029 17.6617752,45.1411785 C17.6196238,45.0357766 17.5674364,44.9082905 17.5252851,44.8028886 C17.4510184,44.64328 17.4510184,44.6543221 17.4088671,44.5489201 C17.3456401,44.4425144 17.1760311,44.2307068 17.1228401,44.1142627 L17.1228401,44.0931824 C16.8789644,43.733812 16.720395,43.203791 16.54075,42.9498226 C16.4564473,42.8022599 16.3289896,42.6647355 16.2446869,42.516169 C16.0961536,42.283281 16.0118509,41.9981939 15.8954329,41.7110992 C15.7790149,41.4902571 15.5993698,41.2463269 15.4929878,41.0023968 C15.3554942,40.7062676 15.3344185,40.3258169 15.1969248,40.0186456 C15.1226581,39.8600409 14.9851644,39.690394 14.9108978,39.5418275 C14.7523284,39.1824572 14.64695,38.8120447 14.4663014,38.4737548 C14.3819987,38.3041079 14.2655807,38.1555414 14.1702383,37.9858945 C14.0437843,37.7008074 13.9594816,37.39464 13.8109482,37.1075453 C13.4938095,36.5474094 13.1545915,35.9230285 12.8906438,35.3187243 C12.7421104,34.9493157 12.6788834,34.5899453 12.5193104,34.2396095 C12.3928564,33.9434803 12.2132114,33.636309 12.0757177,33.3612602 C11.991415,33.1715368 11.9592996,32.9808095 11.885033,32.7790401 C11.7585789,32.4297081 11.6100456,32.0813799 11.4725519,31.7430899 C11.3982852,31.5302784 11.3350582,31.0012612 11.2818672,30.7904574 C11.1764889,30.5455234 11.0490312,30.2704747 10.9436528,30.0275483 C10.7840799,29.6571359 10.7208528,29.2656431 10.5522474,28.8841886 C10.4358294,28.6101436 10.2983357,28.2909264 10.1809141,28.0058393 C10.0865754,27.7518709 10.0755357,27.530025 9.96915375,27.2860948 C9.89589069,27.116448 9.77947267,26.9046403 9.72628168,26.725959 C9.63194294,26.5141513 9.58878799,26.1537772 9.51452133,25.8676863 C9.40914295,25.5504767 9.27164926,25.2433054 9.17630692,24.9260959 C9.10204025,24.6932078 9.10204025,24.1431102 9.02777359,24.0055859 C8.69959522,23.031873 8.39349613,21.9728347 8.07535379,20.9890836 C7.95893578,20.55543 7.88567272,20.0896539 7.74817903,19.6449582 C7.70602767,19.4642692 7.70602767,19.2434271 7.65283669,19.063742 C7.56753038,18.7876894 7.44107633,18.4805181 7.36680966,18.2165114 C7.31361868,18.0047037 7.28250696,17.8039382 7.24035561,17.6132109 C7.18716462,17.4114416 7.08078264,17.1905995 7.00751958,16.9888301 C6.8168349,16.4056062 6.72149256,15.7721909 6.55188356,15.2110512 C6.47761689,14.9570828 6.47761689,14.6489077 6.42542951,14.4270617 C6.19259348,13.7183594 6.12836285,12.9032513 5.93868177,12.1313077 C5.89552682,11.9195001 5.84333943,11.7076924 5.80118808,11.4958848 C5.4408944,10.1095987 5.27128539,8.54262365 4.86984396,7.19950216 C4.79557729,6.94553374 4.87987999,6.62631653 4.83772864,6.34122946 C4.7423863,6.03405817 4.6580836,5.74796727 4.56274126,5.47392231 C4.52058991,5.3253558 4.52058991,5.21995389 4.4884746,5.08142567 C4.41420793,4.83849936 4.30882956,4.6588142 4.20244758,4.69093668 C4.05491785,4.753174 4.07599353,4.89170223 4.07599353,5.08142567 C4.0970692,5.39963905 4.12918452,5.64356919 4.20244758,5.8975376 C4.23456289,6.12942181 4.21348722,6.28802659 4.26667821,6.48979596 C4.39313226,6.91240743 4.44632325,7.52674999 4.49951424,7.9182428 C4.53062595,8.08688586 4.52058991,8.29869351 4.55170162,8.49945906 C4.59385297,8.69119015 4.7423863,8.97728105 4.79557729,9.17804659 C4.83772864,9.47417577 4.83772864,9.85462648 4.86984396,10.1517595 C4.92303495,10.41677 4.99629801,10.6707384 5.08160431,10.9247068 C5.1347953,11.1355106 5.08160431,11.3473183 5.15587098,11.5490877 C5.20805837,11.7608953 5.33551602,11.9516226 5.36662773,12.1624264 C5.40877908,12.4374752 5.36662773,12.7978494 5.41981872,13.009657 C5.72692142,14.2473766 5.81122412,15.6768273 6.18155384,16.8713822 C6.22370519,17.0520712 6.22370519,17.2217181 6.26585654,17.3803229 C6.57295923,18.4072387 6.79575923,19.5285142 7.11289796,20.55543 C7.14400967,20.7039965 7.14400967,20.8726395 7.18716462,21.0523247 C7.292543,21.4126988 7.36680966,21.8041917 7.44107633,22.1746041 C7.49426732,22.3332089 7.49426732,22.4817754 7.52537903,22.6393763 C7.63075741,23.031873 7.77929074,23.3912433 7.89570875,23.771694 C7.94889974,23.952383 7.95893578,24.1109878 7.99105109,24.3027189 C8.0221628,24.4502815 8.09743307,24.6088863 8.13958442,24.7353686 C8.20281145,24.9582184 8.18173577,25.170026 8.2449628,25.350715 C8.28711415,25.4771973 8.39349613,25.5926375 8.42460784,25.7311657 C8.46675919,25.9419695 8.4988745,26.1537772 8.56310513,26.3766269 C8.63636819,26.6416374 8.77386188,26.8956059 8.8902799,27.1495743 C8.9755862,27.3613819 8.9755862,27.5711819 9.04884926,27.7839934 C9.20842223,28.1644441 9.3669916,28.5770173 9.49344565,28.9584718 C9.6209033,29.2766852 9.63194294,29.5938948 9.758397,29.9221464 C9.83266366,30.122912 9.91696636,30.3447579 9.99123303,30.5565656 C10.044424,30.7262124 10.0755357,30.8747789 10.1287267,31.0544641 C10.1919537,31.2120651 10.3615627,31.4670373 10.4669411,31.6577646 C10.5412078,31.8896488 10.5100961,32.1867818 10.5833591,32.4297081 C10.6576258,32.6836765 10.7951195,32.8754076 10.8904618,33.0962497 C10.9647285,33.3411836 10.9647285,33.5630296 11.0169159,33.8049521 C11.0811465,33.9966832 11.2076006,34.16633 11.2818672,34.3359769 C11.3561339,34.5257004 11.4304006,34.7365042 11.5036636,34.9171932 C11.5468186,35.0557214 11.6732726,35.192242 11.7264636,35.3297664 C11.821806,35.5526161 11.9171483,35.7965463 12.001451,36.0394726 C12.1499843,36.3556783 12.17106,36.7903357 12.2764384,37.1717902 C12.3085537,37.2771921 12.287478,37.5522409 12.2132114,37.5733213 C12.064678,37.5954055 11.885033,37.3514754 11.7796546,37.2029089 C11.6100456,36.9599826 11.4304006,36.6528113 11.2929069,36.3466438 C11.2497519,36.229196 11.2186402,36.1237941 11.1865249,36.0073501 C11.1022222,35.7533817 11.0068798,35.4682946 10.8904618,35.192242 C10.8262312,35.0446793 10.7208528,34.8639903 10.6576258,34.6953472 C10.5733231,34.4514171 10.6154745,34.1552879 10.5201321,33.9434803 C10.4458654,33.7627913 10.2983357,33.6262707 10.2029934,33.4455817 C10.1498024,33.2769387 10.1287267,33.0962497 10.0544601,32.948687 C9.96915375,32.7479215 9.86377537,32.5682363 9.73631772,32.3875473 C9.66305466,32.2078622 9.66305466,32.028177 9.59982763,31.7962928 C9.52556096,31.5513588 9.4512943,31.2973904 9.34491232,31.0755445 C9.23953394,30.8326182 9.09100061,30.6097684 8.98562224,30.3447579 C8.94347089,30.2293177 8.91135557,30.0907895 8.86920422,29.9542689 C8.8059772,29.7735799 8.71063486,29.5617723 8.63636819,29.4132058 C8.60525648,29.2656431 8.57314117,29.1281187 8.51995018,28.9905943 C8.42460784,28.7888249 8.31922946,28.5770173 8.2449628,28.3561752 C8.18173577,28.1754862 8.17069613,27.995801 8.09743307,27.8161159 C7.99105109,27.5089446 7.89570875,27.1586087 7.79033038,26.8524413 C7.71606371,26.609515 7.70602767,26.3766269 7.63075741,26.1437389 C7.53641867,25.8676863 7.42000065,25.5926375 7.32465831,25.3175887 C7.24035561,25.0957428 7.21827634,24.8417743 7.15504931,24.6299667 C7.04967093,24.3227954 6.9011376,24.0577849 6.79575923,23.7405753 C6.7315286,23.4866069 6.7315286,23.2436806 6.68937725,23.0107926 C6.50973221,22.4285725 6.31904753,21.7941534 6.12836285,21.2008912 C5.93868177,20.5343496 5.90656646,19.7714405 5.70584574,19.1048989 C5.57838809,18.6391229 5.41981872,18.1843889 5.27128539,17.7186128 C5.20805837,17.4646444 5.20805837,17.2317564 5.15587098,16.9888301 C5.01737368,16.4808933 4.83772864,15.7721909 4.6580836,15.2321316 C4.56274126,14.9360024 4.58381694,14.6388694 4.49951424,14.3216598 C4.41420793,14.0144886 4.39313226,13.6440761 4.30882956,13.3057862 C4.23456289,13.0939785 4.17133587,12.9664924 4.12918452,12.6914436 C4.06595749,12.4374752 4.07599353,12.1202656 4.03384218,11.9195001 C3.99169083,11.7076924 3.64243678,10.5432523 3.61032147,10.3324485 C3.57920976,10.1296753 3.57920976,9.71710208 3.55713048,9.60065806 C3.5360548,9.49525615 3.35640976,8.97728105 3.34537012,8.87187914 C3.31425841,8.73335091 3.31425841,8.58478441 3.25103138,8.30973562 C3.20888003,8.0447251 3.0603467,7.48458923 3.02823139,7.31494235 C2.99711968,7.15734139 2.99711968,6.80700552 2.96500436,6.65843902 C2.93288905,6.46871558 2.82751067,6.09830315 2.75324401,5.82225053 C2.65790167,5.49399886 2.74320797,5.13462854 2.63682599,4.8184228 C2.57359897,4.57348884 2.47825663,4.36168119 2.39395393,4.12979699 C2.35180258,3.93906972 2.28757195,3.68610514 2.28757195,3.55861902 C2.25545663,3.39901041 2.25545663,3.0185597 2.2454206,2.88003148 C2.2454206,2.69030804 2.1611179,2.38313676 2.14004222,2.09804968 C2.11896655,1.73767553 2.03366024,1.32510234 1.97043322,1.10225258 C1.9383179,0.965732014 1.94935754,0.79608513 1.92828187,0.678637286 C1.82189989,0.319266962 1.72756115,-0.0300650843 1.52583683,0.00205740276 C1.39837918,0.01209568 1.34619179,0.118501418 1.40941882,0.372469832 C1.48368548,0.646514799 1.50476116,0.869364553 1.57902782,1.16649756 C1.64225485,1.31406023 1.64225485,1.68447266 1.65329449,1.81195878 C1.65329449,2.0227626 1.66333052,2.05488509 1.69544584,2.24561236 C1.69544584,2.31889178 1.72756115,2.51965733 1.73759719,2.60498268 C1.7697125,2.7324688 1.82189989,2.91215396 1.82189989,3.0185597 L1.82189989,3.45221328 C1.82189989,3.55861902 1.82189989,3.58973768 1.84297556,3.75938456 C1.89616655,3.92802762 1.90720619,3.93906972 1.92828187,4.0866324 C1.9383179,4.21411852 1.92828187,4.33056253 1.92828187,4.42592617 C1.92828187,4.55240846 1.94935754,4.6588142 1.98046925,4.79633859 C2.05473592,5.0392649 2.22434492,5.38859695 2.1611179,5.737929 C2.08685123,6.12942181 2.19222961,6.48979596 2.28757195,6.80700552 C2.3307269,7.02985527 2.28757195,7.26173948 2.3307269,7.45347057 L2.54148365,8.3418581 C2.60571428,8.60586479 2.57359897,8.81867627 2.63682599,9.0405222 C2.7221323,9.36877386 2.95496833,9.81246571 2.96500436,9.93995183 C2.99711968,10.0985566 2.976044,10.4910533 3.02823139,10.7450217 C3.07038274,10.987948 3.13461337,11.273035 3.14464941,11.4426819 C3.16572508,11.5802063 3.14464941,11.6655317 3.16572508,11.7709336 C3.17676472,11.8863738 3.34537012,12.4485173 3.3674494,12.5970838 C3.39956471,12.7556886 3.38852508,12.828968 3.42064039,12.9775345 C3.4517521,13.1250972 3.57920976,13.7283977 3.60028543,13.930167 C3.63139714,14.1198905 3.61032147,14.2473766 3.64243678,14.4270617 C3.71569984,14.7442713 3.8431575,14.9882014 3.89634849,15.2742923 C3.94853587,15.4961383 3.9274602,15.6236244 3.95957551,15.8033095 C4.02280254,16.0683201 4.10810884,16.3112464 4.16029623,16.5652148 C4.20244758,16.7659803 4.20244758,16.9677497 4.23456289,17.1574731 C4.3198692,17.5921305 4.38309622,18.0358224 4.49951424,18.4704798 C4.58381694,18.7244482 4.73235027,18.9673745 4.80561333,19.2113047 C4.86984396,19.4331506 4.87987999,19.6660386 4.94411062,19.8888884 C4.99629801,20.0896539 5.1347953,20.2693391 5.18698269,20.4921888 C5.22913404,20.6397515 5.20805837,20.8314826 5.24017368,21.021206 C5.30340071,21.2219716 5.39874305,21.4126988 5.41981872,21.6445831 C5.47300971,21.7941534 5.4408944,21.9417161 5.47300971,22.1113629 C5.5262007,22.2910481 5.62053944,22.4496529 5.66269079,22.6192998 C5.70584574,22.851184 5.70584574,23.0961179 5.76907277,23.2968835 C5.83229979,23.5608902 5.93868177,23.8148586 6.02298447,24.0577849 C6.10728717,24.2806346 6.07617546,24.523561 6.11832681,24.7684949 C6.26585654,25.2975121 6.44650518,25.8787284 6.62615022,26.3655848 C6.71045292,26.6195532 6.68937725,26.9046403 6.76364391,27.191735 C6.83791058,27.3704164 6.93325292,27.5089446 7.00751958,27.6775877 C7.07074661,27.8472345 7.02859526,28.036958 7.07074661,28.217647 C7.15504931,28.5569407 7.2082403,28.9795522 7.32465831,29.2867235 C7.43003669,29.6360555 7.64179705,29.9432268 7.77929074,30.2704747 C7.89570875,30.6308488 7.91678443,31.0012612 8.0221628,31.3616354 C8.13958442,31.6778411 8.28711415,31.9970583 8.4145718,32.2600612 C8.51995018,32.5361138 8.48783486,32.8754076 8.59421684,33.1384104 C8.67851954,33.4455817 8.8902799,33.6684315 9.01773755,33.9756028 C9.16526728,34.3138927 9.23953394,34.6632248 9.34491232,35.0125568 C9.37702763,35.1611233 9.40914295,35.2986477 9.44125826,35.4682946 C9.57875195,35.9019482 9.81158798,36.2823989 9.96915375,36.7060142 C10.0223447,36.916818 10.044424,37.0764266 10.0966114,37.2561118 C10.2029934,37.5733213 10.3404871,37.8804926 10.4779808,38.1977022 C10.6044348,38.4516706 10.7630042,38.705639 10.8904618,38.9816916 C11.0068798,39.2246179 11.0169159,39.4785863 11.1443735,39.7335586 C11.2186402,39.9764849 11.3350582,40.2505298 11.4404366,40.4954638 C11.5036636,40.6540686 11.5036636,40.7905892 11.5779303,40.960236 C11.8639573,41.6378198 12.2453267,42.3154035 12.5624654,42.9929872 C12.7421104,43.3523575 12.8163771,43.7548924 12.9849825,44.1253048 C13.1234798,44.4314723 13.2820492,44.6964828 13.4195429,45.0136924 C13.4938095,45.2154618 13.5249212,45.4051852 13.6202636,45.5969163 C13.7788329,45.9562866 14.0227086,46.326699 14.191314,46.7081536 C14.2334654,46.781433 14.360923,47.1729258 14.297696,47.3315306 C14.297696,47.3425727 14.2766203,47.3746952 14.2655807,47.3746952 C14.1602023,47.4058138 13.9173302,47.2261287 13.7999086,47.0996464 C13.3553122,46.664989 13.2820492,45.8498809 12.9960221,45.289745 C12.9117194,45.1411785 12.8053375,44.9614933 12.7099951,44.7918465 C12.6678438,44.6764063 12.6467681,44.5689967 12.5935771,44.4635948 C12.3928564,44.0931824 12.17106,43.7870149 12.001451,43.3834762 C11.885033,43.1194695 11.8529177,42.8022599 11.7475393,42.5482915 C11.2286762,41.4681729 10.6576258,40.4312188 10.1919537,39.3631461 C9.96915375,38.8752859 9.91696636,38.3041079 9.73631772,37.7750907 C9.6209033,37.4679194 9.42018259,37.2029089 9.30276097,36.916818 C9.19738259,36.6849338 9.17630692,36.4309654 9.0598889,36.2091194 C8.91135557,35.8909061 8.71063486,35.6158573 8.60525648,35.2665252 C8.53098982,35.0557214 8.4988745,34.8328716 8.4145718,34.6311023 C8.31922946,34.3771339 8.14962046,34.1864066 8.05427812,33.9756028 C7.91678443,33.6262707 7.88567272,33.2879808 7.75821506,32.8954841 C7.70602767,32.7057607 7.63075741,32.4718688 7.54645471,32.2821454 C7.49426732,32.1124985 7.47319164,31.9328134 7.42000065,31.7531282 C7.28250696,31.3395512 7.03863129,30.9801809 6.87002589,30.5776459 C6.76364391,30.291555 6.79575923,29.9432268 6.68937725,29.6671742 C6.58399887,29.4453283 6.40435383,29.2656431 6.29797185,29.0327551 C6.21366915,28.7888249 6.29797185,28.4926958 6.22370519,28.2066049 C6.14943852,27.9315561 6.04406015,27.6775877 5.94871781,27.4236192 C5.90656646,27.2439341 5.89552682,27.0853293 5.83229979,26.9377666 C5.70584574,26.5884346 5.58942773,26.2601829 5.47300971,25.9419695 C5.41981872,25.7632882 5.41981872,25.6137179 5.34555206,25.444071 C5.26124935,25.2653896 5.10267999,25.0847006 5.02841332,24.8528164 C4.94411062,24.5346031 4.92303495,24.1963131 4.84876828,23.8570193 C4.71127459,23.4554883 4.56274126,23.1051524 4.44632325,22.6925792 C4.39313226,22.5660969 4.39313226,22.4386108 4.37205658,22.3010864 C4.26667821,21.930674 4.21348722,21.5181008 4.12918452,21.1697725 C4.07599353,20.9890836 4.0970692,20.8314826 4.05491785,20.6618357 C3.94853587,20.3225419 3.82208182,19.9621678 3.71569984,19.6449582 C3.66351246,19.4231123 3.64243678,19.2113047 3.60028543,19.0105391 C3.4517521,18.4594377 3.2821431,17.8250186 3.11253409,17.3060396 C3.08142238,17.1474349 3.10249805,17.0199487 3.03927103,16.8623478 C2.93288905,16.4487708 2.75324401,15.9408339 2.65790167,15.5272569 C2.61575032,15.2742923 2.61575032,15.0303622 2.55252329,14.8085163 C2.4993323,14.5123871 2.39395393,14.2473766 2.3307269,13.9612857 C2.31968726,13.8237613 2.3307269,13.7183594 2.3307269,13.6229957 C2.29861159,13.4322685 2.28757195,13.2315029 2.25545663,13.0718943 C2.07581159,12.3109929 1.7697125,11.4115633 1.62117917,10.6596963 C1.54691251,10.3846475 1.54691251,10.1095987 1.5158008,9.85462648 C1.48368548,9.65386093 1.47364945,9.44305711 1.40941882,9.25132602 C1.34619179,9.05056047 1.26188909,8.85983321 1.22977378,8.64902939 C1.19765846,8.33181983 1.18762242,8.01360644 1.13443144,7.70643516 C1.13443144,7.67431267 1.13443144,7.66427439 1.1233918,7.6321519 C1.08124045,7.26173948 0.88051973,6.46871558 0.838368379,6.16054047 C0.775141354,5.79113187 0.7319864,5.43176154 0.689835049,5.05030701 C0.689835049,4.8184228 0.637647663,4.57348884 0.616571988,4.31952043 C0.552341359,3.93906972 0.456999019,3.58973768 0.425887308,3.19824486 C0.404811633,2.92319607 0.414847669,2.69030804 0.383735958,2.47850039 C0.372696318,2.31889178 0.351620643,2.08700758 0.171975602,2.08700758 C-0.00766943846,2.08700758 0.0234422725,2.28777312 0.00065420449,2.45742001 C-0.00766943846,2.84891282 0.0655936229,3.37793003 0.0977089374,3.62085633 C0.160935963,4.07659412 0.107744973,4.53132808 0.160935963,4.99710414 C0.193051277,5.26211466 0.277353978,5.52712518 0.308465689,5.75900938 C0.372696318,6.20370506 0.414847669,6.65843902 0.456999019,7.07201604 L0.456999019,7.09209259 C0.478074694,7.30490407 0.489114333,7.48458923 0.531265684,7.67431267 C0.531265684,7.69639688 0.531265684,7.70643516 0.552341359,7.72751554 L0.552341359,7.75963803 L0.552341359,7.79075668 C0.584456674,7.87608204 0.594492709,7.97144567 0.626608024,8.0447251 C0.668759374,8.20533753 0.658723338,8.3418581 0.700874689,8.52154326 C0.838368379,9.0405222 0.806253065,9.60065806 0.943746755,10.0985566 C1.13443144,10.8393815 1.24081341,11.6334092 1.47364945,12.3852762 C1.52583683,12.5860417 1.47364945,12.8078876 1.52583683,13.0407757 C1.61013953,13.2636254 1.66333052,13.4965134 1.71652151,13.7183594 C1.7697125,14.0044503 1.72756115,14.2895373 1.80082421,14.5645861 C1.86405124,14.8295967 1.94935754,15.0946072 2.01258457,15.3485756 C2.10792691,15.6336627 2.10792691,15.9508722 2.19222961,16.2791239 C2.28757195,16.6174138 2.39395393,16.977788 2.44614131,17.2949975 C2.53144762,17.6874942 2.55252329,18.1201439 2.63682599,18.5015985 C2.69001698,18.8509305 2.8907377,19.2434271 2.96500436,19.6138396 C2.96500436,19.7182377 2.96500436,19.8457238 2.976044,19.984252 C3.02823139,20.2382204 3.10249805,20.5122654 3.16572508,20.7461572 C3.18780436,20.8726395 3.17676472,20.9579649 3.21891607,21.0944855 C3.34537012,21.5823457 3.49390345,22.1746041 3.63139714,22.6393763 C3.67354849,22.7779045 3.68458813,22.9264711 3.71569984,23.0639954 C3.82208182,23.3912433 3.91742416,23.6452117 3.95957551,23.8148586 C3.99169083,23.9845055 4.02280254,24.1752327 4.05491785,24.3549179 C4.12918452,24.6088863 4.21348722,24.8196901 4.24560253,25.0636203 C4.28775388,25.2433054 4.3198692,25.402914 4.37205658,25.5825992 C4.42524757,25.7944068 4.52058991,25.9841303 4.60489261,26.1959379 C4.7423863,26.6195532 4.77450162,27.0853293 4.91199531,27.5089446 C4.99629801,27.7518709 5.12375566,27.995801 5.20805837,28.2497695 C5.27128539,28.5037379 5.30340071,28.7888249 5.37766737,29.0648776 C5.50412142,29.4774508 5.66269079,29.9542689 5.81122412,30.3668421 C6.0019088,30.8637368 6.10728717,31.4238727 6.26585654,31.8695722 C6.3401232,32.0703378 6.33008717,32.2510267 6.39331419,32.4628344 C6.54084392,32.9175684 6.68937725,33.4455817 6.83791058,33.9113578 C6.92221328,34.16633 6.92221328,34.4092563 7.02859526,34.6521827 C7.18716462,35.0446793 7.42000065,35.3930075 7.56753038,35.7845003 C7.684952,36.1448745 7.71606371,36.4731261 7.8535574,36.8124199 C8.0221628,37.2450697 8.21284748,37.668685 8.39349613,38.1354648 C8.4988745,38.4516706 8.55206549,38.769884 8.66848351,39.0760514 C8.77386188,39.3099433 8.92239521,39.5839882 9.04884926,39.8279184 C9.13415557,40.0497643 9.22949791,40.2836562 9.28168529,40.5055021 C9.34491232,40.675149 9.52556096,40.9702743 9.66305466,41.2041662 C9.80054835,41.5213757 9.83266366,41.8496274 9.93804204,42.1768752 C10.1287267,42.6958542 10.3715988,43.2248714 10.5833591,43.6906474 C10.6787015,43.8713364 10.6897411,44.0409833 10.7630042,44.2517871 C10.8904618,44.5800388 11.1122582,44.835011 11.2497519,45.1411785 C11.3882492,45.4363039 11.4304006,45.7555211 11.5468186,46.0406081 C11.7475393,46.4642234 11.895069,46.7081536 11.885033,47.3104502 C11.885033,47.3536148 11.8639573,47.4058138 11.8107663,47.4158521 C11.7053879,47.4590167 11.5779303,47.2783277 11.5036636,47.2261287 C11.1764889,46.8878387 11.1443735,46.6027517 10.9326132,46.14601 C10.6154745,45.4694302 10.2240691,44.8550876 9.90592672,44.1995881 C9.76843303,43.8713364 9.69516997,43.4898819 9.52556096,43.151592 C9.44125826,42.9397843 9.30276097,42.7068963 9.20842223,42.4960925 C9.04884926,42.1989595 8.9755862,41.8807461 8.81701684,41.6056973 C8.60525648,41.1830858 8.4145718,40.7163059 8.23392316,40.2836562 C8.14962046,40.0929289 8.14962046,39.9343241 8.07535379,39.7847538 C7.99105109,39.5960342 7.88567272,39.4364256 7.79033038,39.2567404 C7.684952,38.9816916 7.60968173,38.6323596 7.49426732,38.3462687 C7.25039165,37.8172515 6.97540427,37.2450697 6.75260427,36.6849338 C6.58399887,36.1559166 6.47761689,35.6790984 6.28693221,35.1179587 C6.21366915,34.9171932 6.10728717,34.6632248 6.04406015,34.4514171 C5.96979348,34.2396095 5.96979348,34.0810047 5.90656646,33.8902774 C5.72692142,33.4144631 5.50412142,32.8954841 5.30340071,32.4507885 C5.19802233,32.2179004 5.16590701,31.9970583 5.08160431,31.7531282 C4.97522233,31.4670373 4.84876828,31.1277435 4.7423863,30.8326182 C4.60489261,30.472244 4.59385297,30.0275483 4.44632325,29.603933 C4.13922055,28.7687484 3.73677552,27.8582766 3.47282778,26.9377666 C3.43067643,26.725959 3.4517521,26.5141513 3.38852508,26.3023437 C3.23999175,25.8476097 3.08142238,25.3386691 2.95496833,24.8528164 C2.78535932,24.3227954 2.81647103,23.7516174 2.63682599,23.2115581 C2.42506564,22.5349782 2.19222961,21.8363141 1.97043322,21.1697725 C1.90720619,20.9469228 1.9383179,20.7461572 1.87509088,20.5343496 C1.72756115,19.9942903 1.54691251,19.3909898 1.36726747,18.9041334 C1.27192513,18.6712453 1.27192513,18.4072387 1.18762242,18.1843889 C1.08124045,17.8993018 0.806253065,18.0047037 0.817292704,18.3229171 C0.838368379,18.5969621 0.943746755,18.9573362 0.97586207,19.0948606 C1.00697378,19.3056645 1.00697378,19.4973956 1.05012873,19.6981611 C1.1233918,20.0575314 1.24081341,20.3757448 1.34619179,20.6929544 C1.45157017,21.0523247 1.45157017,21.3494577 1.55795215,21.7188663 C1.62117917,21.8784749 1.69544584,22.0902826 1.72756115,22.2599294 C1.84297556,22.6082577 1.84297556,22.9897122 1.97043322,23.2968835 C2.05473592,23.5608902 2.14004222,23.8570193 2.21330528,24.133072 C2.26649627,24.3227954 2.25545663,24.4814002 2.31968726,24.6410088 C2.39395393,24.9582184 2.4993323,25.2975121 2.60571428,25.5926375 C2.65790167,25.7944068 2.63682599,25.9530116 2.67897734,26.1226585 C2.75324401,26.3766269 2.81647103,26.6416374 2.8907377,26.8624795 C2.95496833,27.1064097 2.95496833,27.4236192 3.00715571,27.6675494 C3.16572508,28.1122451 3.32429445,28.5770173 3.47282778,28.9905943 C3.63139714,29.4453283 3.64243678,29.9432268 3.82208182,30.4090029 C4.12918452,31.2552296 4.39313226,32.2179004 4.71127459,33.0540889 C4.79557729,33.2769387 4.76346198,33.4987846 4.83772864,33.7316726 C4.92303495,34.0920468 4.99629801,34.4514171 5.12375566,34.801753 C5.19802233,34.970396 5.30340071,35.1500812 5.37766737,35.3187243 C5.47300971,35.5204936 5.48304575,35.722263 5.58942773,35.9431051 C5.66269079,36.112752 5.76907277,36.293441 5.83229979,36.4630879 C5.93868177,36.7371328 5.90656646,37.0663883 6.01294844,37.3093146 C6.0862115,37.5211223 6.19259348,37.7329299 6.26585654,37.9447376 C6.36119888,38.1766218 6.36119888,38.4205519 6.44650518,38.6323596 C6.54084392,38.8331251 6.67934121,39.0238524 6.75260427,39.1934993 C6.83791058,39.3832227 6.85898625,39.5749538 6.93325292,39.7646772 C7.00751958,39.9654428 7.11289796,40.1772504 7.2082403,40.3689815 C7.292543,40.5697471 7.31361868,40.8016313 7.39792138,41.0355231 C7.47319164,41.2142045 7.60968173,41.4159738 7.684952,41.6056973 C7.75821506,41.8175049 7.75821506,42.0614351 7.8535574,42.283281 C7.96997542,42.6225748 8.17069613,42.8865814 8.31922946,43.2248714 C8.4145718,43.436679 8.42460784,43.7016896 8.53098982,43.9345776 C8.65744387,44.2196647 8.81701684,44.4957173 8.94347089,44.7496857 C9.10204025,45.109056 9.26060962,45.4895067 9.38806727,45.8177584 C9.66305466,46.4331048 9.76843303,47.0996464 10.0223447,47.701943 C10.2551808,48.1255583 10.5100961,48.5692502 10.7208528,48.9828272 C10.8262312,49.2267573 10.8583465,49.4807257 10.9747645,49.723652 C11.1122582,49.9987008 11.3139825,50.2105085 11.4304006,50.4865611 C11.5357789,50.749564 11.6100456,51.0035324 11.715424,51.2685429 C11.8639573,51.5967946 12.0967933,51.915008 12.2453267,52.2211754 C12.3296294,52.4129065 12.3828204,52.6136721 12.4560834,52.7722768 C12.6256924,53.1527275 12.9117194,53.4388184 13.0592492,53.820273 C13.1545915,54.0421189 13.2398978,54.286049 13.3131609,54.5289753 C13.5148852,54.8993878 13.7788329,55.2376777 13.9805573,55.6080901 C14.1180509,55.9152614 14.2023536,56.2013523 14.360923,56.4753973 C14.6258744,56.878936 14.7954834,57.1539848 15.0483915,57.5765963 C15.2180005,57.8305647 15.4408005,58.2431379 15.5672545,58.5081484 C15.6947122,58.8153197 15.9265446,59.0371656 16.0650419,59.3222527 C16.1804563,59.5983053 16.3611049,59.8954383 16.5096383,60.1694833 C16.6993194,60.4766546 16.8578887,60.6884622 17.0375338,60.9524689 C17.3556761,61.418245 17.5353211,61.9151397 17.8424238,62.3929617 C18.0541842,62.7091674 18.2759806,63.0384229 18.5188526,63.3445904 C19.123022,64.1697368 19.9800995,65.6744745 20.3604652,66.1804037 C20.6675679,66.5729003 20.9214796,67.0697951 21.196467,67.4733338 C21.419267,67.8106199 21.7042904,68.1398754 21.9260868,68.4259663 C22.1278111,68.7000113 22.2763444,68.9650218 22.4559895,69.2400706 L22.6245949,69.4408361 C30.391483,79.3054511 38.3811711,85.8564308 45.1424484,90.143779 L45.1203691,90.143779 C48.7082519,92.3762919 50.6331636,93.0217531 50.6331636,93.0217531 C51.07776,93.2225186 50.7505852,93.5397282 50.5388249,93.6882947 L10.4458654,119.333081 C10.3294474,119.406361 10.0123087,119.629211 10.1287267,119.893217 C10.2341051,120.083945 10.6465862,119.967501 10.7529681,119.935378 C42.9194665,108.64332 66.2622821,99.3609252 80.5365358,92.5870957 C95.0014742,85.7088682 99.857912,81.7808903 99.3500886,79.8334645 M13.7366816,41.8917882 C13.6624149,41.7442255 13.5881483,41.5745786 13.5249212,41.4260121 C13.4506546,41.2463269 13.4506546,41.0666418 13.3763879,40.9180753 C13.1234798,40.3358552 12.8484924,39.7225165 12.5725014,39.1613768 C12.4671231,38.9395308 12.3296294,38.4948352 12.4249717,38.2087443 C12.4350077,38.1665835 12.5303501,38.1977022 12.5624654,38.2087443 C12.6467681,38.3041079 12.7099951,38.3462687 12.7842618,38.4426361 C12.8484924,38.5159155 12.8585285,38.6002371 12.9117194,38.6966045 C13.0281375,38.886328 13.1967429,39.0870935 13.3031248,39.2878591 C13.5148852,39.7536351 13.5570365,40.2505298 13.7687969,40.7062676 C13.9062906,40.9923585 14.128087,41.2463269 14.2766203,41.5424561 C14.3398473,41.7020647 14.3819987,41.8606695 14.4452257,42.0403547 C14.477341,42.1768752 14.4663014,42.3364839 14.477341,42.4428896 C14.477341,42.5894484 14.4663014,42.6958542 14.4030744,42.6958542 C14.0227086,42.6747738 13.9062906,42.1768752 13.7366816,41.8917882 M15.4297608,54.1896816 C15.4086851,54.2428844 15.3876095,54.286049 15.3023032,54.286049 C14.8797861,54.2639648 14.7523284,53.639584 14.5726834,53.3334165 C14.4030744,53.1105668 14.2766203,52.8254797 14.128087,52.5915878 C14.011669,52.4129065 13.8641392,52.2322175 13.7687969,52.0515285 C13.6523789,51.7975601 13.6202636,51.5345573 13.4616942,51.3227496 C13.3874275,51.2053018 13.2499338,51.0998998 13.1756672,50.9834558 C12.9538708,50.6762846 12.7421104,50.3480329 12.5725014,49.9555362 C12.5413897,49.7979353 12.5193104,49.6704492 12.4671231,49.5118444 C12.3928564,49.2799602 12.287478,49.0149497 12.2031753,48.7609813 C12.17106,48.622453 12.1389447,48.3795267 12.17106,48.2952052 C12.181096,48.2530444 12.2031753,48.2209219 12.234287,48.2319641 C12.5413897,48.2952052 12.8796041,49.0892329 13.0281375,49.3632779 C13.2077825,49.6814913 13.4827699,49.9244176 13.6523789,50.2526693 C13.7687969,50.5598405 13.8109482,50.9192109 13.9805573,51.2053018 C14.0969753,51.4161056 14.297696,51.5967946 14.4351897,51.8086022 C14.6148347,52.0625706 14.7312527,52.4329831 14.8797861,52.719074 C15.0172798,53.0573639 15.2501158,53.3223744 15.3876095,53.6496223 C15.4408005,53.7981888 15.4719122,54.0421189 15.4297608,54.1896816 M24.4350957,52.3697419 C24.2444111,52.3376194 24.1380291,52.2211754 24.011575,52.1258118 C23.6833967,51.8818816 23.4084093,51.4813544 23.3973696,50.9192109 C23.3973696,50.8459314 23.4084093,50.8248511 23.4505606,50.8248511 C23.8520021,50.8248511 24.2654867,51.4281515 24.4240561,51.7242807 C24.4561714,51.8296826 24.5615498,52.0515285 24.5394705,52.2010989 C24.5394705,52.3065008 24.4983228,52.3486615 24.4350957,52.3697419 M27.1327822,52.4751438 C26.8678308,52.5604692 26.2335534,51.8296826 26.0529047,51.5345573 C25.7046543,51.0366587 25.3764759,50.4865611 25.0061462,49.9987008 C24.6779678,49.5329248 24.3176741,49.2267573 24.2233354,48.4638483 C24.2233354,48.3684846 24.1591048,48.1255583 24.2233354,48.1255583 C24.5826255,48.156677 24.9318795,48.7920999 25.1014885,49.0460683 C25.2389822,49.2267573 25.3865119,49.3964042 25.5240056,49.5750855 C25.672539,49.8511382 25.7678813,50.1793898 25.9475263,50.4333582 C26.1703263,50.749564 26.4443101,51.0256166 26.6881858,51.3428262 C26.8156434,51.512473 26.9842488,51.6610395 27.0585155,51.8818816 C27.1117065,52.0093678 27.2281245,52.4329831 27.1327822,52.4751438 M36.5927495,57.7151245 C36.2224198,57.7562815 35.7667838,57.1951418 35.5871387,56.9210968 C35.5239117,56.8468135 35.3121513,56.4021179 35.3753784,56.3388767 C35.449645,56.2645935 35.8832018,56.41316 36.0106594,56.5085236 C36.2956828,56.7404078 36.5395585,57.0586212 36.6870882,57.6187571 C36.6870882,57.6930403 36.6238612,57.7151245 36.5927495,57.7151245" id="Fill-1" fill="#005D63" fill-rule="nonzero"></path>
            <path d="M241.108091,111.211914 C242.574355,109.353829 244.032591,107.765774 247.043402,107.765774 L247.043402,107.35822 L244.197182,107.35822 L239.451141,107.35822 C237.229163,107.35822 234.8165,106.924566 231.553784,111.211914 L227.952855,115.837553 C226.48659,117.686603 225.106635,119.284697 222.069731,119.284697 L222.069731,119.683217 L224.862759,119.683217 L229.601776,119.683217 C231.831783,119.683217 234.140071,120.030541 237.524222,115.837553 L241.108091,111.211914 Z" id="Fill-3" fill="#005D63" fill-rule="nonzero"></path>
            <path d="M256.424888,94.9262151 C256.424888,93.7115835 257.370282,91.541308 258.871673,91.541308 L258.871673,91.1417845 L246.09881,91.1417845 L246.09881,91.541308 C247.617263,91.541308 248.553625,93.7115835 248.553625,94.9262151 L248.553625,110.54979 C248.553625,112.640763 248.51047,114.820073 245.785686,114.820073 C243.938052,114.820073 242.888283,114.316151 241.422018,112.649797 L241.02158,112.649797 L244.779072,119.411581 C246.037591,119.584239 246.732084,119.697672 248.476347,119.697672 C250.194517,119.697672 256.424888,119.714737 256.424888,110.54979 L256.424888,94.9262151 Z" id="Fill-5" fill="#005D63" fill-rule="nonzero"></path>
            <path d="M230.50271,102.119644 C234.5382,106.545521 236.733081,105.964305 238.95506,105.964305 L244.247061,105.964305 L246.946755,105.964305 L246.946755,105.565785 C243.908847,105.565785 242.34724,103.959661 240.620038,102.119644 L240.135298,101.633792 C236.030559,97.2239767 233.904927,97.7891317 231.673916,97.7891317 L226.380911,97.7891317 L223.621001,97.7891317 L223.621001,98.1966858 C226.632815,98.1966858 228.306826,99.7586417 230.016966,101.633792 L230.50271,102.119644 Z" id="Fill-7" fill="#005D63" fill-rule="nonzero"></path>
            <path d="M263.761732,111.211914 C262.303496,109.353829 260.863325,107.765774 257.82642,107.765774 L257.82642,107.35822 L260.681672,107.35822 L265.436746,107.35822 C267.640659,107.35822 270.053322,106.924566 273.324067,111.211914 L276.934029,115.837553 C278.391261,117.686603 279.771216,119.284697 282.817153,119.284697 L282.817153,119.683217 L280.014088,119.683217 L275.268047,119.683217 C273.046068,119.683217 270.746813,120.030541 267.362661,115.837553 L263.761732,111.211914 Z" id="Fill-9" fill="#005D63" fill-rule="nonzero"></path>
            <g id="Fill-11-Clipped" transform="translate(220.879858, 57.426223)">
                <mask id="mask-2" fill="white">
                    <use xlink:href="#path-1"></use>
                </mask>
                <g id="path-1"></g>
                <path d="M54.0440528,33.3983521 L51.2058618,31.1678469 C47.3791214,28.1643943 45.4361449,26.8363303 43.8303791,26.255114 L56.7939266,26.255114 C60.0576454,26.255114 62.6951156,27.7739054 62.6951156,29.6400211 L63.086521,29.6400211 L63.086521,21.9155668 L35.5516532,21.9155668 L35.5516532,16.8723363 L52.0649465,16.8723363 C55.3196329,16.8723363 57.9741644,18.3921315 57.9741644,20.2572434 L58.3565373,20.2572434 L58.3565373,12.5327891 L35.5516532,12.5327891 L35.5516532,8.12297391 L55.6066635,8.12297391 C58.8693788,8.12297391 61.506849,9.63373463 61.506849,11.5169154 L61.8972508,11.5169154 L61.8972508,3.78342668 L35.5516532,3.78342668 C35.5516532,2.56879514 36.4980514,0.389485155 37.9994423,0.389485155 L37.9994423,1.11447265e-16 L25.225576,1.11447265e-16 L25.225576,0.389485155 C26.7359994,0.389485155 27.6813939,2.56879514 27.6813939,3.78342668 L1.21436033,3.78342668 L1.21436033,11.5169154 L1.5967333,11.5169154 C1.5967333,9.63373463 4.25226837,8.12297391 7.49691874,8.12297391 L27.6813939,8.12297391 L27.6813939,12.5327891 L4.76310259,12.5327891 L4.76310259,20.2572434 L5.16354042,20.2572434 C5.16354042,18.3921315 7.79197819,16.8723363 11.0637259,16.8723363 L27.6813939,16.8723363 L27.6813939,21.9155668 L0.0260936931,21.9155668 L0.0260936931,29.6400211 L0.424524314,29.6400211 C0.424524314,27.7739054 3.06299813,26.255114 6.32571336,26.255114 L19.281232,26.255114 C17.6844987,26.8363303 15.7585834,28.1643943 11.9137781,31.1678469 L9.07659077,33.3983521 C2.47287922,38.2588859 2.32534949,38.275951 3.20339343e-16,38.275951 L3.20339343e-16,38.753773 L8.92002862,38.753773 C12.0181529,38.753773 13.3198267,38.7196428 20.1061941,33.3983521 L22.9524139,31.1678469 C28.7401957,26.610469 29.1737525,26.3073131 31.5603218,26.2812135 C33.9639523,26.3073131 34.3804478,26.610469 40.1682297,31.1678469 L43.0064206,33.3983521 C49.7917844,38.7196428 51.0854294,38.753773 54.1996113,38.753773 L63.1206435,38.753773 L63.1206435,38.275951 C60.7862616,38.275951 60.6387319,38.2588859 54.0440528,33.3983521" id="Fill-11" fill="#005D63" fill-rule="nonzero" mask="url(#mask-2)"></path>
            </g>
            <path d="M274.379958,102.119644 C270.344468,106.545521 268.148583,105.964305 265.927609,105.964305 L260.634603,105.964305 L257.93491,105.964305 L257.93491,105.565785 C260.972818,105.565785 262.525392,103.959661 264.261627,102.119644 L264.747371,101.633792 C268.851106,97.2239767 270.96068,97.7891317 273.189684,97.7891317 L278.500754,97.7891317 L281.260664,97.7891317 L281.260664,98.1966858 C278.232792,98.1966858 276.575843,99.7586417 274.864698,101.633792 L274.379958,102.119644 Z" id="Fill-14" fill="#005D63" fill-rule="nonzero"></path>
            <path d="M134.218488,57.797338 L134.218488,58.1958576 C136.09322,58.1958576 137.60264,62.2242183 137.60264,65.4786277 L137.60264,112.165651 C137.60264,115.429095 136.09322,118.086227 134.227521,118.086227 L134.227521,118.484747 L188.219386,118.484747 C193.8767,118.484747 198.441089,113.902273 198.441089,108.217597 L198.441089,57.7883036 L134.218488,57.797338 Z M190.570829,107.643407 C190.492548,111.246145 187.611202,114.145199 184.019305,114.145199 L145.48996,114.145199 L145.48996,62.1368853 L190.570829,62.1368853 L190.570829,107.643407 Z" id="Fill-16" fill="#005D63" fill-rule="nonzero"></path>
            <path d="M148.550148,79.8873701 L148.550148,101.066127 L161.237705,101.066127 C164.569669,101.066127 167.31051,98.3748652 167.31051,95.0250921 L167.31051,79.8873701 L148.550148,79.8873701 Z M161.01089,95.008027 C161.01089,95.9706978 160.247148,96.7255762 159.292721,96.7255762 L154.849768,96.7255762 L154.849768,84.2178828 L161.01089,84.2178828 L161.01089,95.008027 Z" id="Fill-18" fill="#005D63" fill-rule="nonzero"></path>
            <path d="M182.079741,100.787364 L180.483008,94.8065588 C182.514301,90.6055398 184.900871,85.6325773 185.264175,84.9037983 C186.305916,82.7857218 186.905067,80.9547401 188.761734,80.2510568 L188.744672,79.8776329 L179.381051,79.8776329 L179.381051,80.1556932 C180.969755,80.7459439 181.16044,82.2737697 179.267644,86.1103992 C179.024772,86.5962519 178.790932,87.0740739 178.565121,87.550892 L175.111721,74.4971164 L181.715433,74.4971164 C186.175447,74.4971164 187.459056,76.0249421 187.616622,77.0749459 L188.00602,77.0749459 L188.00602,70.1565653 L184.153186,70.1565653 C185.724829,66.685329 186.323981,65.7577922 187.641712,65.6182602 L187.641712,65.2177329 L178.018157,65.2177329 L178.018157,65.4877626 C179.38908,66.0087492 179.693172,67.3016793 178.443685,70.1565653 L173.897361,70.1565653 C173.158709,67.2836104 173.679579,66.0519137 175.15588,65.5218927 L175.15588,65.2267674 L162.927974,65.2267674 L162.927974,65.6343214 C165.609603,66.190442 166.347251,67.9782591 166.93737,70.1565653 L148.454003,70.1565653 L148.454003,77.0749459 L148.844405,77.0749459 C149.000967,76.0249421 150.276547,74.4971164 154.745594,74.4971164 L168.065421,74.4971164 L173.974638,97.0290334 C170.747049,103.451523 168.829163,105.700097 164.203554,105.700097 L154.519783,105.682028 C151.066383,105.682028 148.688846,104.823756 147.682232,103.26983 L147.29183,103.26983 L151.160722,110.021576 L164.629082,110.021576 C169.653121,110.021576 173.046305,107.852304 175.84937,103.720549 C176.916201,107.071326 178.357375,110.221337 182.930797,110.221337 L188.154553,110.221337 L188.154553,109.944281 C184.925961,108.668416 183.919346,107.44475 182.079741,100.787364" id="Fill-20" fill="#005D63" fill-rule="nonzero"></path>
        </g>
    </g>
</svg>